HIERARCHY
ROOT pelvis
{
  OFFSET 0 100 0
  CHANNELS 6 Xposition Yposition Zposition Zrotation Xrotation Yrotation
  JOINT pelvis_right_femur
  {
    OFFSET -10.78128 -3.44521 -0.5502486
    CHANNELS 3 Zrotation Xrotation Yrotation
    JOINT right_femur_tibia
    {
      OFFSET -0.8047443 -44.0398 -0.1307829
      CHANNELS 3 Zrotation Xrotation Yrotation
      JOINT right_tibia_foot
      {
        OFFSET 3.006224 -47.83518 -5
        CHANNELS 3 Zrotation Xrotation Yrotation
        End Site
        {
          OFFSET 0 -5 15
        }
      }
    }
  }
  JOINT pelvis_left_femur
  {
    OFFSET 10.78128 -3.44521 -0.5502486
    CHANNELS 3 Zrotation Xrotation Yrotation
    JOINT left_femur_tibia
    {
      OFFSET 0.8047443 -44.0398 -0.1307829
      CHANNELS 3 Zrotation Xrotation Yrotation
      JOINT left_tibia_foot
      {
        OFFSET -4.370144 -48.10324 -4.275266
        CHANNELS 3 Zrotation Xrotation Yrotation
        End Site
        {
          OFFSET 0 -5 15
        }
      }
    }
  }
  JOINT pelvis_spine1
  {
    OFFSET 0 6.468898 -3.129235
    CHANNELS 3 Zrotation Xrotation Yrotation
    JOINT spine1
    {
      OFFSET 0 23.15396 4.99043
      CHANNELS 3 Zrotation Xrotation Yrotation
      JOINT spine2
      {
        OFFSET 0 20.79997 -5.064912
        CHANNELS 3 Zrotation Xrotation Yrotation
        JOINT neck
        {
          OFFSET 0 14.38658 9.616178
          CHANNELS 3 Zrotation Xrotation Yrotation
          End Site
          {
            OFFSET 0 20 0
          }
        }
      }
      JOINT right_manubrium
      {
        OFFSET -5.722621 16.35077 3.967754
        CHANNELS 3 Zrotation Xrotation Yrotation
        JOINT right_clavicle
        {
          OFFSET -13.16364 1.694482 -4.693211
          CHANNELS 3 Zrotation Xrotation Yrotation
          JOINT right_humerus
          {
            OFFSET -28.5034 -0.3100689 -2.792744
            CHANNELS 3 Zrotation Xrotation Yrotation
            JOINT right_radius
            {
              OFFSET -25.15693 0.02248979 -1.271978
              CHANNELS 3 Zrotation Xrotation Yrotation
              End Site
              {
                OFFSET -15 0 0
              }
            }
          }
        }
      }
      JOINT left_manubrium
      {
        OFFSET 5.722621 16.35077 3.967754
        CHANNELS 3 Zrotation Xrotation Yrotation
        JOINT left_clavicle
        {
          OFFSET 13.16364 1.694482 -4.693211
          CHANNELS 3 Zrotation Xrotation Yrotation
          JOINT left_humerus
          {
            OFFSET 29.39168 -1.063119 -2.237045
            CHANNELS 3 Zrotation Xrotation Yrotation
            JOINT left_radius
            {
              OFFSET 24.59957 -0.9528479 0.9047498
              CHANNELS 3 Zrotation Xrotation Yrotation
              End Site
              {
                OFFSET 15 -0 -0
              }
            }
          }
        }
      }
    }
  }
}
MOTION
Frames: 9
Frame Time: 0.0416666666667
0 103.5113 0 -0.2847971 -0.9531422 -0.2079092 0.9475769 -8.25937 10.20106 -0 28.11792 -0 -2.036928 -15.26758 -3.035933 -4.15901 3.478312 -19.3046 -0 11.72517 -0 5.16213 -19.0878 21.78597 -6.211458 -8.322047 3.09866 8.152596 10.08119 -11.76374 -3.708083 23.48614 11.43989 3.795661 -25.67133 8.901535 7.879407 -16.9197 19.13672 82.26875 33.66127 -18.13094 -0 0 19.1047 -10.9677 7.253672 3.488927 -1.003456 -19.5696 -1.484579 -98.45984 36.92403 27.87761 0 0 -13.90892 7.637426 31.74725 8.449492
0.529287 103.4257 0.9797437 -0.2973148 -0.9869598 -0.438664 1.308212 -11.67783 10.01509 -0 34.29901 -0 -1.976809 -14.55222 -4.331993 -4.325929 4.546545 -18.98829 -0 10.98529 -0 4.852387 -19.58872 21.47111 -6.480158 -7.785064 2.768348 8.074407 10.25029 -11.9421 -3.895673 23.27847 11.98141 4.350609 -25.89553 8.872625 7.898799 -17.02445 18.72543 81.87119 33.29799 -17.86693 -0 0 19.47114 -11.41213 7.191745 3.866302 -1.089677 -19.33346 -1.733422 -98.18016 36.83885 27.76298 0 0 -13.81046 7.655187 31.70949 8.675682
0.9750506 103.4434 2.023487 -0.3029128 -1.000793 -0.5331634 1.902529 -15.14649 9.608815 -0 39.32997 -0 -2.187028 -14.12526 -5.473775 -4.398536 5.708673 -18.73484 -0 10.02658 -0 4.381319 -19.98989 21.0951 -6.820782 -7.047299 2.436341 7.957676 10.3851 -12.211 -4.071929 22.96324 12.49202 4.911711 -26.01 8.762617 7.998702 -17.21054 18.31779 81.52064 32.96598 -17.6443 -0 0 19.73453 -11.77689 7.136822 4.186142 -1.207054 -19.14668 -1.97634 -97.85614 36.7381 27.62803 0 0 -13.54867 7.593696 31.58408 8.93234
1.396916 103.5675 3.269598 -0.305258 -1.005024 -0.5625485 2.535696 -18.7451 9.045564 -0 42.06921 -0 -2.479094 -13.53383 -6.272906 -4.36235 6.959181 -18.55335 -0 8.901332 -0 3.747496 -20.2946 20.6611 -7.043294 -6.212826 2.227534 7.967399 10.42086 -12.44021 -4.007219 22.56581 12.98497 5.628729 -26.04867 8.810257 7.944778 -17.22517 17.85336 81.40982 32.69927 -17.76057 -0 0 19.66743 -12.0492 7.108106 4.431729 -1.240039 -19.08497 -2.198307 -97.52795 36.61623 27.35477 0 0 -13.29628 7.509398 31.38207 9.17814
1.767852 103.7407 4.755517 -0.3037777 -0.9983289 -0.5181585 3.033679 -21.77955 8.242833 -0 42.02361 -0 -2.670408 -12.46334 -6.648765 -4.521489 8.476971 -18.13142 -0 7.904783 -0 3.049903 -20.61895 20.29401 -7.274123 -5.366408 2.214711 8.043692 10.36756 -12.53365 -3.92164 22.11393 13.35736 6.347968 -25.9251 8.642303 7.887199 -17.10599 17.47181 81.52969 32.53664 -18.16197 -0 0 19.17213 -12.17152 7.125389 4.552288 -1.029543 -19.0948 -2.316541 -97.23866 36.44736 26.9507 0 0 -13.1942 7.476125 31.11075 9.356057
2.122997 103.7791 6.405703 -0.3118479 -1.017037 -0.6494496 3.434491 -24.22058 7.27886 -0 39.0195 -0 -2.6892 -10.8582 -6.382354 -4.599069 10.02338 -17.70087 -0 6.934222 -0 2.297944 -21.06574 19.86516 -7.499538 -4.375228 2.334086 8.109541 10.20245 -12.51735 -3.824972 21.41188 13.59734 7.033356 -25.74921 8.232998 7.878585 -16.92033 17.22223 81.81177 32.48513 -18.73544 -0 0 18.30647 -12.15115 7.190131 4.550454 -0.6362177 -19.13218 -2.356893 -96.97183 36.22547 26.43058 0 0 -13.29252 7.539893 30.78188 9.414551
2.402854 103.5891 8.138911 -0.3235481 -1.045027 -0.8458648 3.844198 -26.08905 6.243451 -0 33.53326 -0 -2.608427 -8.828868 -5.54833 -4.669173 11.59232 -17.24671 -0 6.165934 -0 1.546415 -21.73482 19.32881 -7.562457 -3.081192 2.571679 8.190968 9.986212 -12.36373 -3.585392 20.77475 13.77622 7.672677 -25.94381 8.095283 7.766138 -16.74233 17.06339 82.26057 32.52842 -19.32901 -0 0 17.19018 -12.02764 7.294454 4.479912 -0.180178 -19.37995 -2.418819 -96.57447 36.01245 25.63143 0 0 -13.55534 7.688583 30.40929 9.366541
2.68592 103.181 10.30259 -0.3248924 -1.045389 -0.8526492 4.070059 -27.23689 5.288789 -0 26.88317 -0 -2.551007 -6.366986 -4.560345 -4.625358 13.13789 -16.85007 -0 5.655208 -0 0.7709715 -22.5953 18.58478 -7.460368 -2.006888 2.747085 8.177421 9.808906 -12.22132 -3.30401 20.24618 13.87723 8.221856 -26.30351 8.062856 7.485774 -16.49304 16.85616 82.91554 32.63318 -20.00213 -0 0 15.92301 -11.82309 7.441654 4.354373 0.3154296 -19.65404 -2.425307 -96.21291 35.76264 24.80783 0 0 -13.8014 7.858401 29.97839 9.280476
2.895293 102.601 12.83721 -0.314836 -1.015508 -0.6514918 4.112568 -27.87332 4.224853 -0 19.89848 -0 -2.667809 -3.949375 -3.740613 -4.842284 14.90032 -16.20835 -0 5.580848 -0 -0.016508 -23.5878 17.75459 -7.25788 -0.9602117 2.804005 8.012532 9.683263 -12.14297 -2.945686 19.70153 13.87512 8.710345 -26.77224 8.073865 7.16985 -16.11435 16.6872 83.81855 32.73198 -20.71403 -0 0 14.69778 -11.57867 7.613946 4.281866 0.6878642 -20.04854 -2.44285 -95.79591 35.50118 23.97884 0 0 -13.79949 7.986162 29.47277 9.236855
